<?xml version="1.0" encoding="iso-8859-1"?>
<!-- Generator: Adobe Illustrator 19.0.0, SVG Export Plug-In . SVG Version: 6.00 Build 0)  -->
<svg version="1.1" id="Capa_1" xmlns="http://www.w3.org/2000/svg" xmlns:xlink="http://www.w3.org/1999/xlink" x="0px" y="0px"
	 viewBox="0 0 511.999 511.999" style="enable-background:new 0 0 511.999 511.999;" xml:space="preserve">
<path style="fill:#B6B0A2;" d="M167.146,503.493c-15.576,4.174-31.586-5.07-35.759-20.646L34.658,121.85
	c-4.174-15.576,5.07-31.586,20.646-35.759L344.852,8.506c15.576-4.174,31.586,5.07,35.759,20.646l96.729,360.998
	c4.174,15.576-5.07,31.586-20.646,35.759L167.146,503.493z"/>
<path style="fill:#FFF9EB;" d="M102.002,477.998c-16.568,0-29.999-13.432-29.999-29.999V64.002
	c0-16.568,13.432-29.999,29.999-29.999h307.995c16.568,0,29.999,13.432,29.999,29.999v383.996c0,16.568-13.432,29.999-29.999,29.999
	L102.002,477.998L102.002,477.998z"/>
<path style="fill:#00BAC0;" d="M402.497,402.995H109.502c-4.142,0-7.5-3.358-7.5-7.5V71.501c0-4.142,3.358-7.5,7.5-7.5h292.995
	c4.142,0,7.5,3.358,7.5,7.5v323.994C409.997,399.638,406.639,402.995,402.497,402.995z"/>
<g>
	<path style="fill:#E9E3D5;" d="M76.026,462.997c5.188,8.965,14.874,15,25.977,15h307.995c16.568,0,29.999-13.432,29.999-29.999
		V64.002c0-11.102-6.035-20.788-15-25.976c-8.965,5.188-15,14.874-15,25.977v383.995H102.002
		C90.9,447.997,81.214,454.033,76.026,462.997z"/>
	<path style="fill:#E9E3D5;" d="M325.998,370.292c0-15.999-5.575-31.572-16.791-43.755c0.004-0.001,0.007-0.003,0.011-0.004
		c-13.986-15.197-33.399-23.471-53.219-23.499l-10.001,99.998h80L325.998,370.292L325.998,370.292z"/>
</g>
<path style="fill:#FFF9EB;" d="M202.78,326.533c0.004,0.001,0.007,0.002,0.011,0.004C191.599,338.693,186,354.261,186,370.293
	v32.741h69.999v-99.998C236.18,303.063,216.765,311.337,202.78,326.533z"/>
<path style="fill:#D3CDBF;" d="M295.999,367.792c-4.142,0-7.5,3.357-7.5,7.5v27.742h15v-27.742
	C303.499,371.15,300.141,367.792,295.999,367.792z"/>
<g>
	<path style="fill:#E9E3D5;" d="M216,367.792c-4.142,0-7.5,3.357-7.5,7.5v27.742h15v-27.742
		C223.5,371.15,220.142,367.792,216,367.792z"/>
	<path style="fill:#E9E3D5;" d="M309.208,326.537c0.004-0.001,0.007-0.003,0.011-0.004c-13.986-15.197-33.399-23.471-53.219-23.499
		c-19.82,0.028-39.233,8.302-53.219,23.499c0.004,0.001,0.007,0.002,0.011,0.004c-3.325,3.611-6.144,7.53-8.482,11.666
		c18.426,11.262,39.724,17.332,61.712,17.332c22.443,0,43.641-6.256,61.709-17.263C315.386,334.112,312.554,330.171,309.208,326.537
		z"/>
</g>
<path style="fill:#FFB578;" d="M303.608,149.035c-13.994-9.957-30.248-15.998-47.587-15.998c-47.3,0-86.522,44.955-93.802,91.718
	c-2.681-1.128-5.626-1.752-8.717-1.752c-12.426,0-22.5,10.074-22.5,22.5c0,12.426,10.074,22.5,22.5,22.5
	c4.034,0,7.816-1.067,11.09-2.926c2.748,9.39,6.967,18.168,12.335,26.191c2.631,3.933,17.707,15.729,39.197,20.227l51.211,10.717
	l45.958-45.071C350.601,240.553,346.279,179.396,303.608,149.035z"/>
<path style="fill:#F7A16E;" d="M358.14,223.036c-2.922,0-5.689,0.641-8.191,1.767c-0.111-0.757-0.228-1.512-0.355-2.264
	c-5.037-29.669-21.492-56.698-45.985-73.504c13.955,19.248,21.004,41.23,21.004,64.239c0,51.748-42.542,93.698-95.02,93.698
	c-19.482,0-37.591-5.785-52.666-15.703c14.491,21.418,37.689,36.611,64.606,40.674L256,346.035l14.478-14.1
	c37.947-5.72,68.558-33.575,77.736-69.839c0.126-0.497,0.239-0.998,0.356-1.497c2.843,1.553,6.104,2.437,9.571,2.437
	c11.046,0,20-8.955,20-20C378.14,231.99,369.185,223.036,358.14,223.036z"/>
<path style="fill:#35404A;" d="M256.043,199.918c29.003,16.588,61.452,24.892,93.905,24.886l-54.695-54.682
	c0.247-0.244,0.499-0.48,0.745-0.726l-78.387-0.02l-0.066,0.066h-1.378c0.23,0.23,0.467,0.451,0.698,0.68l-54.648,54.634
	C194.642,224.762,227.061,216.473,256.043,199.918z"/>
<path style="fill:#FF6473;" d="M269.939,100.492c-3.846-3.862-8.895-5.993-13.941-5.985c-5.03,0.008-10.057,2.142-13.888,5.994
	c-4.758,4.783-10.435,10.65-16.536,17.278l91.533,36.444C300.951,132.699,282.334,112.935,269.939,100.492z"/>
<path style="fill:#FFF9EB;" d="M349.948,224.803c0-20.633-14.906-46.691-32.839-70.581c-8.266-5.493-16.849-10.489-25.706-14.894
	c-21.007-10.45-43.034-17.648-65.829-21.551c-7.488,8.135-15.615,17.42-23.475,27.276
	C259.75,154.223,306.749,179.256,349.948,224.803z"/>
<path style="fill:#FF6473;" d="M202.101,145.054c-7.513,9.422-14.777,19.363-21.003,29.314l67.889,11.749
	c36.301-1.924,73.243,10.967,100.961,38.686C314.874,180.099,262.055,149.991,202.101,145.054z"/>
<path style="fill:#FFF9EB;" d="M248.987,186.118c-20.229-7.718-41.963-11.794-64.349-11.794c-1.184,0-2.362,0.022-3.541,0.045
	c-11.088,17.722-18.88,35.476-18.88,50.388C186.333,200.666,217.417,187.791,248.987,186.118z"/>
<path d="M273.337,247.661c-2.928-2.929-7.677-2.928-10.606,0c-2.93,2.931-7.675,2.931-10.605,0c-2.929-2.928-7.678-2.929-10.606,0
	c-2.93,2.929-2.93,7.678-0.001,10.607C257.265,274.012,283.541,257.864,273.337,247.661z"/>
<path d="M215.926,229.637c-16.82,0-21.279,23.398-8.398,23.398c4.143,0,7.5-3.357,7.5-7.5c0-1.188,1.797-1.187,1.797,0
	c0,4.143,3.357,7.5,7.5,7.5C237.227,253.036,232.721,229.637,215.926,229.637z"/>
<path d="M290.531,253.036c4.143,0,7.5-3.357,7.5-7.5c0-1.188,1.797-1.187,1.797,0c0,4.143,3.357,7.5,7.5,7.5
	c12.902,0,8.397-23.398-8.398-23.398C282.11,229.637,277.651,253.036,290.531,253.036z"/>
<path d="M132.002,56.503c-4.141,0-7.5,3.359-7.5,7.5c0,4.13,3.359,7.5,7.5,7.5h270.495v323.994h-67.57v-25.206
	c0-18.081-6.483-35.186-18.262-48.265c17.91-12.472,31.573-30.511,38.454-51.854c16.77,2.747,31.948-10.252,31.948-27.137
	c0-15.531-13.001-28.294-28.982-27.434c-6.552-39.95-52.952-91.836-81.404-120.404c-10.771-10.812-27.523-10.982-38.459,0.013
	c-28.384,28.534-74.745,80.414-81.282,120.367c-17.459-1.156-32.01,12.727-32.01,29.925c0,19.057,17.682,33.437,36.461,29.294
	c7.329,19.122,20.066,35.402,36.875,47.143c-11.83,13.089-18.338,30.23-18.338,48.351v25.206h-70.428V64.003
	c0-4.141-3.37-7.5-7.5-7.5c-4.141,0-7.5,3.359-7.5,7.5c0,11.3,0,325.649,0,338.994c0,4.108,3.343,7.5,7.5,7.5
	c3.694,0,303.759,0,307.995,0c4.183,0,7.5-3.424,7.5-7.5c0-361.882,1.072-341.047-2.2-344.294
	C412.101,55.483,430.499,56.503,132.002,56.503z M253.593,193.496c-20.846,11.88-43.912,19.479-67.713,22.401
	C205.947,201.925,229.418,194.236,253.593,193.496z M329.132,215.942c-23.824-2.927-46.915-10.542-67.776-22.444
	C285.121,194.245,308.764,201.773,329.132,215.942z M266.055,105.784c6.905,6.933,15.559,15.958,24.583,26.193
	c-6.497,1.754-7.797,10.765-1.146,14.068c8.041,4,16.048,8.618,23.825,13.726c10.246,13.756,18.013,26.362,23.153,37.499
	c-15.013-14.355-32.066-26.625-50.39-36.126c-3.679-1.905-8.203-0.473-10.111,3.205c-1.906,3.678-0.472,8.204,3.205,10.111
	c5.336,2.767,10.549,5.799,15.633,9.049c-13.932-3.849-28.499-5.56-43.194-4.943c-9.25-3.44-18.834-6.168-28.52-8.099
	c-8.171-1.629-12.459,9.345-5.421,13.72c-15.189,4.487-29.521,11.53-42.416,20.853c2.603-7.031,6.442-14.779,11.494-23.202
	c1.629,0.003,3.257,0.024,4.872,0.074c7.65,0.277,10.706-9.923,4.112-13.914c3.392-4.878,7.122-9.918,11.151-15.079
	c15.615,1.596,30.991,4.977,45.758,10.113c9.475,3.291,14.197-10.942,4.928-14.168c-12.808-4.455-26.04-7.693-39.487-9.679
	c3.709-4.372,7.604-8.809,11.666-13.286c11.1,2.105,22.096,5.041,32.741,8.757c9.476,3.302,14.208-10.93,4.943-14.162
	c-8.401-2.932-17.007-5.401-25.709-7.401c2.361-2.454,4.741-4.896,7.137-7.304C254.173,100.446,261.349,101.06,266.055,105.784z
	 M173.218,262.971c-1.357-4.639-6.699-6.805-10.901-4.415c-9.948,5.645-22.388-1.571-22.388-13.053
	c0-10.692,10.947-17.985,20.81-13.835c4.129,1.738,50.998,1.642,96.73-23.167c49.417,26.843,96.813,23.801,93.91,23.801
	c0.967,0,2.047-0.209,3.03-0.644c8.328-3.761,17.659,2.356,17.659,11.377c0,6.893-5.607,12.5-12.5,12.5
	c-6.081,0-7.44-4.103-12.63-1.785c-2.119,0.946-3.683,2.718-4.331,5.512c-7.775,33.266-35.771,59.822-71.821,65.256
	c-3.081,0.463-3.509,1.454-13.359,11.047c-9.828-9.571-10.264-10.571-13.349-11.037C210.864,319.513,182.815,295.77,173.218,262.971
	z M194.929,370.292c0-25.393,14.821-37.757,16.135-40.724c8.876,4.456,18.421,7.653,28.355,9.397l10.509,10.235v10.131
	c0,4.143,3.357,7.5,7.5,7.5c4.143,0,7.5-3.357,7.5-7.5v-10.131l10.517-10.243c10.044-1.754,19.574-4.938,28.377-9.324
	c1.291,2.842,16.106,15.367,16.106,40.659v25.206h-15v-20.206c0-4.143-3.358-7.5-7.5-7.5c-4.142,0-7.5,3.357-7.5,7.5v20.206h-64.999
	v-20.206c0-4.143-3.358-7.5-7.5-7.5c-4.142,0-7.5,3.357-7.5,7.5v20.206h-15L194.929,370.292L194.929,370.292z"/>
<path d="M484.584,388.208l-37.088-138.417V64.002c0-20.678-16.822-37.499-37.499-37.499h-22.35
	c-5.557-19.22-25.432-30.415-44.736-25.241l-94.2,25.241H102.002c-20.678,0-37.499,16.822-37.499,37.499v11.859
	c-12.069,3.235-24.777,5.106-33.423,20.083c-4.9,8.489-6.202,18.379-3.665,27.848l37.088,138.417v185.789
	c0,20.678,16.822,37.499,37.499,37.499h22.35c5.554,19.208,25.423,30.419,44.736,25.241l94.201-25.241h146.707
	c20.678,0,37.499-16.822,37.499-37.499v-11.859c12.069-3.235,24.777-5.106,33.423-20.083
	C485.82,407.567,487.121,397.677,484.584,388.208z M346.793,15.75c9.923-2.657,20.085,1.976,24.747,10.753h-64.876L346.793,15.75z
	 M41.902,119.909c-1.5-5.599-0.73-11.445,2.168-16.465c5.142-8.909,12.641-9.966,20.433-12.054v112.865L41.902,119.909z
	 M165.205,496.249c-9.921,2.661-20.086-1.978-24.747-10.753h64.877L165.205,496.249z M432.497,447.997
	c0,12.406-10.094,22.5-22.5,22.5c-12.799,0-295.489,0-307.995,0c-12.406,0-22.5-10.094-22.5-22.5V64.002
	c0-12.406,10.094-22.5,22.5-22.5c319.175,0-362.609,0,307.995,0c12.406,0,22.5,10.094,22.5,22.5V447.997z M454.753,418.665
	l-7.258,1.945V307.746l22.601,84.346C473.2,403.674,466.339,415.561,454.753,418.665z"/>
<g>
</g>
<g>
</g>
<g>
</g>
<g>
</g>
<g>
</g>
<g>
</g>
<g>
</g>
<g>
</g>
<g>
</g>
<g>
</g>
<g>
</g>
<g>
</g>
<g>
</g>
<g>
</g>
<g>
</g>
</svg>
