<svg id="Layer_1" enable-background="new 0 0 256 256" height="512" viewBox="0 0 256 256" width="512" xmlns="http://www.w3.org/2000/svg"><g id="Layer_55"><g><g fill="#5290db"><path d="m150.5 149.3c0-6 4.8-10.8 10.8-10.8h43.2v-17.3l-23.4-17c-2.2-1.6-2.8-4.7-1.2-7 1.6-2.2 4.7-2.8 7-1.2l17.6 12.7v-54.7c0-7.2-5.8-13-13-13h-176c-7.2 0-13 5.8-13 13v124c0 7.2 5.8 13 13 13h135z"/><path d="m161.3 138.5h81.4c6 0 10.8 4.8 10.8 10.8v50.7c0 6-4.8 10.8-10.8 10.8h-81.4c-6 0-10.8-4.8-10.8-10.8v-50.7c0-6 4.8-10.8 10.8-10.8z"/><path d="m27.7 191-8.6 11.9c-1.6 2.2-1.2 5.4 1.1 7s5.4 1.2 7-1.1c0 0 0 0 0-.1l12.9-17.7z"/></g><path d="m73.5 131.9v49.1h30v-31c-12.6 0-24.1-7-30-18.1z" fill="#f5c84c"/><path d="m103.5 150v31h30v-49.1c-5.9 11.1-17.4 18.1-30 18.1z" fill="#87d147"/><path d="m15.5 51c-1.7 0-3 1.4-3 3v124c0 1.7 1.4 3 3 3h27.9v-130z" fill="#fc657e"/><path d="m69.5 116c0-5.5 1.3-11 3.9-15.9v-49.1h-30v130h30v-49.1c-2.5-4.9-3.9-10.4-3.9-15.9z" fill="#fca265"/><path d="m103.5 82v-31h-30v49.1c5.9-11.1 17.4-18.1 30-18.1z" fill="#f5c84c"/><path d="m133.5 100.1v-49.1h-30v31c12.6 0 24.1 7 30 18.1z" fill="#87d147"/><path d="m133.5 51v49.1c5.3 9.9 5.3 21.8 0 31.8v49.1h17v-31.7c0-6 4.8-10.8 10.8-10.8h2.2v-87.5z" fill="#70d6f9"/><path d="m194.5 138.5v-24.6l-13.4-9.7c-2.2-1.6-2.8-4.7-1.2-7 1.6-2.2 4.7-2.8 7-1.2l7.6 5.5v-47.5c0-1.7-1.4-3-3-3h-27.9v87.5z" fill="#087ebf"/><circle cx="103.5" cy="116" fill="#edf4fc" r="34"/><path d="m117.9 114.9-20-12.2c-.6-.4-1.4-.2-1.8.4-.1.2-.2.4-.2.7v24.5c0 .7.6 1.3 1.3 1.3.2 0 .5-.1.7-.2l20-12.2c.6-.4.8-1.2.4-1.8-.1-.2-.3-.4-.4-.5z" fill="#fc657e"/><path d="m243 148.5h-82c-.3 0-.5.4-.5.8v9.9h83v-9.9c0-.4-.2-.8-.5-.8z" fill="#9be5f9"/><circle cx="233.5" cy="174.3" fill="#edf4fc" r="6.2"/><circle cx="234" cy="194.7" fill="#edf4fc" r="6.2"/><path d="m181.1 104.2 47.4 34.3h14.2c1.2 0 2.4.2 3.6.6-.1-.1-.2-.2-.3-.3l-59-42.7c-2.2-1.6-5.4-1.2-7 1.1-1.7 2.2-1.2 5.3 1.1 7-.1 0 0 0 0 0z" fill="#edf4fc"/><circle cx="172" cy="223.4" fill="#87d147" r="3.1"/><circle cx="218" cy="63.4" fill="#fc657e" r="3.1"/><circle cx="56" cy="206.4" fill="#f5c84c" r="3.1"/><path d="m236.8 94.3c-4.3-.8-7.8-4.1-8.6-8.5 0-.1-.1-.2-.2-.2s-.1.1-.2.2c-.9 4.3-4.3 7.7-8.6 8.5-.1 0-.2.1-.2.2s.1.1.2.2c4.3.8 7.8 4.1 8.6 8.5 0 .1.1.2.2.2s.1-.1.2-.2c.9-4.3 4.3-7.7 8.6-8.5.1 0 .2-.1.2-.2s-.1-.2-.2-.2z" fill="#f5c84c"/><path d="m84.9 214h-2.1v-2.1c0-1.6-1.3-2.9-2.9-2.9s-2.9 1.3-2.9 2.9v2.1h-2.1c-1.6 0-2.9 1.3-2.9 2.9s1.3 2.9 2.9 2.9h2.1v2.1c0 1.6 1.3 2.9 2.9 2.9s2.9-1.3 2.9-2.9v-2.1h2.1c1.6 0 2.9-1.3 2.9-2.9s-1.3-2.9-2.9-2.9z" fill="#70d6f9"/><path d="m208.8 168.3c-1.4 0-2.5 1.1-2.5 2.5v29.2c0 1.4 1.1 2.5 2.5 2.5s2.5-1.1 2.5-2.5v-29.2c-.1-1.4-1.2-2.5-2.5-2.5z"/><path d="m218 168.3c-1.4 0-2.5 1.1-2.5 2.5v29.2c0 1.4 1.1 2.5 2.5 2.5s2.5-1.1 2.5-2.5v-29.2c0-1.4-1.1-2.5-2.5-2.5z"/><path d="m199.5 168.3c-1.4 0-2.5 1.1-2.5 2.5v29.2c0 1.4 1.1 2.5 2.5 2.5s2.5-1.1 2.5-2.5v-29.2c0-1.4-1.1-2.5-2.5-2.5z"/><path d="m190.2 168.3c-1.4 0-2.5 1.1-2.5 2.5v29.2c0 1.4 1.1 2.5 2.5 2.5s2.5-1.1 2.5-2.5v-29.2c.1-1.4-1.1-2.5-2.5-2.5z"/><path d="m171.8 168.3c-1.4 0-2.5 1.1-2.5 2.5v29.2c0 1.4 1.1 2.5 2.5 2.5s2.5-1.1 2.5-2.5v-29.2c-.1-1.4-1.2-2.5-2.5-2.5z"/><path d="m181 168.3c-1.4 0-2.5 1.1-2.5 2.5v29.2c0 1.4 1.1 2.5 2.5 2.5s2.5-1.1 2.5-2.5v-29.2c0-1.4-1.1-2.5-2.5-2.5z"/><path d="m162.5 168.3c-1.4 0-2.5 1.1-2.5 2.5v29.2c0 1.4 1.1 2.5 2.5 2.5s2.5-1.1 2.5-2.5v-29.2c0-1.4-1.1-2.5-2.5-2.5z"/><path d="m247.6 136.9c-.1 0-.1-.1-.2-.1l-40.4-29.3v-53.5c0-8.6-7-15.5-15.5-15.5h-176c-8.5 0-15.5 7-15.5 15.5v124c0 8.6 7 15.5 15.5 15.5h7.3l-5.7 7.9c-2.5 3.3-1.7 8 1.6 10.5s8 1.7 10.5-1.6c0 0 0-.1.1-.1l12.1-16.7h106.6v6.5c0 7.3 6 13.3 13.3 13.3h81.4c7.3 0 13.3-6 13.3-13.3v-50.7c0-5.5-3.4-10.4-8.4-12.4zm-99.6 12.4v29.2h-12v-46c5.3-10.4 5.3-22.6 0-33v-46h25v82.5c-7.2.2-13 6.1-13 13.3zm-102-95.8h25v46c-5.3 10.4-5.3 22.6 0 33v46h-25zm57.5 94c-17.4 0-31.5-14.1-31.5-31.5s14.1-31.5 31.5-31.5c16.7 0 30.5 13 31.4 29.7 0 .6.1 1.2.1 1.8-.1 17.4-14.1 31.4-31.5 31.5zm27.5-55.4c-6.4-7.3-15.4-11.8-25-12.4v-26.2h25zm-30-12.5c-9.7.7-18.7 5.1-25 12.4v-38.5h25zm-25 60.3c6.4 7.3 15.4 11.8 25 12.4v26.1h-25zm30 12.5c9.7-.7 18.7-5.1 25-12.4v38.6h-25zm60-98.9h25.4c.3 0 .5.3.5.5v42.6l-3.6-2.6c-3.3-2.5-8-1.7-10.5 1.6s-1.7 8 1.6 10.5c0 0 0 0 .1.1l12.4 9v20.8h-26v-82.5zm31 65.3 5 3.6v13.6h-5zm10 7.3 13.7 9.9h-13.7zm-11-14.2-13.4-9.7c-1.1-.8-1.3-2.4-.5-3.5s2.3-1.3 3.5-.6l52.3 37.9h-8.5zm-170.8 95.4c-.8 1.1-2.4 1.3-3.5.5s-1.3-2.3-.5-3.4l7.9-10.9h6.2zm-9.7-18.8c-5.8 0-10.5-4.7-10.5-10.5v-124c0-5.8 4.7-10.5 10.5-10.5h175.9c5.8 0 10.5 4.7 10.5 10.5v49.9l-5-3.6v-46.3c0-3-2.5-5.5-5.5-5.5h-175.9c-3 0-5.5 2.5-5.5 5.5v124c0 3 2.5 5.5 5.5 5.5h132.5v5zm0-10c-.3 0-.5-.3-.5-.5v-124c0-.3.3-.5.5-.5h25.5v125zm235.5 21.5c0 4.6-3.7 8.3-8.3 8.3h-81.4c-4.6 0-8.3-3.7-8.3-8.3v-50.7c0-4.6 3.7-8.3 8.3-8.3h81.4c4.6 0 8.3 3.7 8.3 8.3z"/><path d="m119.2 112.8-20-12.2c-1.8-1.1-4.1-.5-5.2 1.3-.4.6-.6 1.3-.6 2v24.5c0 2.1 1.7 3.8 3.8 3.8.7 0 1.4-.2 2-.6l20-12.2c1.8-1.1 2.4-3.4 1.3-5.2-.4-.7-.8-1.1-1.3-1.4zm-20.8 13.3v-20.2l16.5 10.1z"/><path d="m243 146h-82c-1.7.1-3.1 1.5-3 3.3v.1 9.9c0 1.4 1.1 2.5 2.5 2.5h83c1.4 0 2.5-1.1 2.5-2.5v-9.9c.1-1.8-1.2-3.3-3-3.4zm-80 5h58.2v5.7h-58.2zm78 5.7h-14.8v-5.7h14.8z"/><path d="m233.5 183c4.8 0 8.7-3.9 8.7-8.7s-3.9-8.7-8.7-8.7-8.7 3.9-8.7 8.7 3.9 8.7 8.7 8.7zm0-12.4c2.1 0 3.7 1.7 3.7 3.7s-1.7 3.7-3.7 3.7c-2.1 0-3.7-1.7-3.7-3.7 0-2.1 1.7-3.7 3.7-3.7z"/><path d="m234 186c-4.8 0-8.7 3.9-8.7 8.7s3.9 8.7 8.7 8.7 8.7-3.9 8.7-8.7-3.9-8.7-8.7-8.7zm0 12.4c-2.1 0-3.7-1.7-3.7-3.7s1.7-3.7 3.7-3.7c2.1 0 3.7 1.7 3.7 3.7 0 2.1-1.7 3.7-3.7 3.7z"/></g></g></svg>