<svg id="Layer_1" enable-background="new 0 0 512 512" height="512" viewBox="0 0 512 512" width="512" xmlns="http://www.w3.org/2000/svg"><g><g><g><path d="m118.517 182.556h206.923v248.444h-206.923z" fill="#527184"/><path d="m118.517 182.556h23.802v248.443h-23.802z" fill="#7da4b7"/><path d="m301.638 182.556h23.802v248.443h-23.802z" fill="#4e667d"/><path d="m148.781 151.015h206.923v248.444h-206.923z" fill="#ffc200" transform="matrix(.987 -.164 .164 .987 -41.73 45.103)"/><path d="m153.304 165.761-23.479 3.904 40.715 244.971.019.112 23.479-3.905z" fill="#ffe236"/><path d="m333.945 135.715-23.479 3.905 40.715 244.97.018.112 23.48-3.905z" fill="#fa0"/><path d="m364.381 334.28-138.177 52.378-88.061-232.314 193.488-73.344 61.852 163.17z" fill="#c3d9f0"/><path d="m226.204 386.658 22.257-8.437-88.063-232.209-22.22 8.426z" fill="#eef8ff"/><path d="m309.518 89.382 72.33 190.815 11.635-36.027-61.852-163.171z" fill="#91afc6"/><path d="m364.381 334.28 29.102-90.11-58.494 18.885z" fill="#c3d9f0"/></g></g><path d="m397.223 242.752-61.852-163.17c-.783-2.065-3.09-3.104-5.158-2.322l-193.488 73.344c-.992.376-1.794 1.131-2.229 2.098-.436.968-.469 2.068-.093 3.061l3.24 8.548-8.492 1.412c-1.046.175-1.981.757-2.598 1.62s-.866 1.936-.692 2.982l1.369 8.231h-8.711c-2.209 0-4 1.791-4 4v248.444c0 2.209 1.791 4 4 4h206.921c2.209 0 4-1.791 4-4v-38.615l45.895-7.632c2.179-.363 3.652-2.423 3.29-4.603l-8.447-50.804 27.111-83.946c.279-.864.256-1.798-.066-2.648zm-33.301 79.932-23.585-57.152 46.937-15.153zm-34.613-236.525 58.943 155.497-54.491 17.593c-1.063.343-1.933 1.113-2.401 2.126-.469 1.013-.493 2.175-.067 3.206l27.82 67.419-130.587 49.5-81.676-215.47c-.003-.007-.005-.014-.008-.021l-3.542-9.343zm-7.869 340.841h-198.922v-240.444h6.042l38.053 228.848c.175 1.046.757 1.98 1.62 2.598.683.488 1.497.746 2.326.746.219 0 .438-.018.656-.054l150.226-24.98v33.286zm-147.591-16.854-39.44-237.188 6.127-1.019 81.929 216.136c.376.992 1.131 1.794 2.098 2.229.521.234 1.082.353 1.643.353.479 0 .961-.086 1.418-.26l136.023-51.562 6.432 38.68z" fill="#402943"/></g></svg>