<svg id="Layer_1" enable-background="new 0 0 128 128" height="512" viewBox="0 0 128 128" width="512" xmlns="http://www.w3.org/2000/svg"><g><g><path d="m117 33.056c-1.973 0-3.85.707-5.331 2h-.597c-1.299-12.995-6.67-22.471-13.288-22.472h-61.817c-6.619 0-11.99 9.476-13.289 22.472h-3.347c-1.481-1.293-3.358-2-5.331-2-4.48 0-8.125 3.645-8.125 8.125s3.645 8.125 8.125 8.125c1.972 0 3.849-.707 5.331-2h3.347c1.299 12.996 6.67 22.472 13.289 22.472h5.159v47.638c0 .395.232.752.592.913.36.162.78.097 1.075-.168l4.211-3.766 4.211 3.766c.379.34.954.34 1.333 0l4.208-3.766 4.206 3.766c.379.339.954.341 1.334 0l4.208-3.766 4.205 3.766c.379.339.954.341 1.334 0l4.206-3.766 4.211 3.766c.379.34.954.34 1.334 0l4.209-3.766 4.208 3.766c.379.339.954.341 1.334 0l4.208-3.766 4.208 3.766c.38.34.954.34 1.334 0l4.208-3.766 4.207 3.766c.187.167.426.255.667.255.138 0 .277-.028.408-.087.36-.161.592-.519.592-.913v-70.11h.294c1.482 1.293 3.359 2 5.331 2 4.48 0 8.125-3.645 8.125-8.125-.002-4.481-3.647-8.125-8.127-8.125z" fill="#e6e7e8"/></g><g><g><g><path d="m106.155 42.306c-1.097 12.791-6.217 22.472-12.372 22.472h-55.657v48.637l4.877-4.362 4.877 4.362 4.875-4.362 4.873 4.362 4.876-4.362 4.871 4.362 4.874-4.362 4.877 4.362 4.876-4.362 4.875 4.362 4.876-4.362 4.874 4.362 4.875-4.362 4.874 4.362v-71.109z" fill="#d4fbff"/></g><g><g><path d="m81.192 37.181c0-15.241 5.637-27.597 12.591-27.597h-61.816c-6.954 0-12.592 12.355-12.592 27.597 0 15.241 5.638 27.597 12.592 27.597h61.817c-6.954 0-12.592-12.356-12.592-27.597z" fill="#d4fbff"/></g></g><g><path d="m19.375 37.181c0-1.752.078-3.464.22-5.125h-4.653c-1.281-1.236-3.022-2-4.943-2-3.935 0-7.125 3.19-7.125 7.125s3.19 7.125 7.125 7.125c1.921 0 3.661-.764 4.943-2h4.653c-.142-1.662-.22-3.373-.22-5.125z" fill="#fa759e"/></g><g><path d="m22.375 37.181c0-15.241 5.637-27.597 12.592-27.597h-3c-6.954 0-12.592 12.355-12.592 27.597s5.637 27.597 12.592 27.597h3c-6.954 0-12.592-12.356-12.592-27.597z" fill="#fff"/></g><path d="m93.784 64.778c-6.954 0-12.592-12.356-12.592-27.597s5.637-27.597 12.592-27.597c6.954 0 12.592 12.355 12.592 27.597-.001 15.241-5.638 27.597-12.592 27.597z" fill="#6dc9f7"/><path d="m93.784 46.449c-1.991 0-3.604-4.15-3.604-9.269s1.614-9.269 3.604-9.269c1.991 0 3.604 4.15 3.604 9.269s-1.614 9.269-3.604 9.269z" fill="#0089ef"/></g><g><path d="m113 30.056c-1.921 0-3.661.764-4.943 2h-17.276c-.38 1.468-.602 3.229-.602 5.125s.222 3.657.602 5.125h17.276c1.281 1.236 3.021 2 4.943 2 3.935 0 7.125-3.19 7.125-7.125s-3.19-7.125-7.125-7.125z" fill="#fa759e"/></g><g fill="#3a2c60"><path d="m48.137 91.942h-2.837c-.552 0-1 .447-1 1s.448 1 1 1h2.837c.552 0 1-.447 1-1s-.448-1-1-1z"/><path d="m56.647 91.942h-2.837c-.552 0-1 .447-1 1s.448 1 1 1h2.837c.552 0 1-.447 1-1s-.447-1-1-1z"/><path d="m82.18 91.942h-2.837c-.552 0-1 .447-1 1s.448 1 1 1h2.837c.552 0 1-.447 1-1s-.448-1-1-1z"/><path d="m99.202 91.942h-2.837c-.552 0-1 .447-1 1s.448 1 1 1h2.837c.552 0 1-.447 1-1s-.448-1-1-1z"/><path d="m65.159 91.942h-2.837c-.552 0-1 .447-1 1s.448 1 1 1h2.837c.552 0 1-.447 1-1s-.448-1-1-1z"/><path d="m90.691 91.942h-2.837c-.552 0-1 .447-1 1s.448 1 1 1h2.837c.552 0 1-.447 1-1s-.448-1-1-1z"/><path d="m73.669 91.942h-2.837c-.552 0-1 .447-1 1s.448 1 1 1h2.837c.552 0 1-.447 1-1s-.447-1-1-1z"/><path d="m57.25 10.584h7.625c.552 0 1-.447 1-1s-.448-1-1-1h-7.625c-.552 0-1 .447-1 1s.448 1 1 1z"/><path d="m113 29.056c-1.973 0-3.85.707-5.332 2h-.6c-1.299-12.994-6.667-22.472-13.285-22.472h-23.658c-.552 0-1 .447-1 1s.448 1 1 1h18.581c-5.035 4.152-8.514 14.359-8.514 26.597s3.479 22.445 8.514 26.597h-56.74c-6.283 0-11.591-12.18-11.591-26.597s5.308-26.597 11.591-26.597h20.284c.552 0 1-.447 1-1s-.448-1-1-1h-20.283c-6.619 0-11.989 9.476-13.289 22.472h-3.347c-1.481-1.293-3.359-2-5.332-2-4.48 0-8.125 3.645-8.125 8.125s3.646 8.125 8.126 8.125c1.973 0 3.85-.707 5.332-2h3.347c1.299 12.995 6.67 22.472 13.289 22.472h5.159v47.638c0 .395.232.752.592.913s.781.097 1.075-.168l4.211-3.766 4.211 3.766c.379.34.954.34 1.333 0l4.208-3.766 4.206 3.766c.379.34.954.34 1.334 0l4.208-3.766 4.205 3.766c.38.34.954.34 1.334 0l4.207-3.766 4.21 3.766c.379.34.954.34 1.333 0l4.208-3.766 4.208 3.766c.379.34.954.34 1.334 0l4.209-3.766 4.207 3.766c.38.34.954.34 1.334 0l4.208-3.766 4.207 3.766c.187.167.426.255.667.255.138 0 .277-.028.408-.087.36-.161.592-.519.592-.913v-70.11h.293c1.481 1.293 3.359 2 5.332 2 4.48 0 8.125-3.645 8.125-8.125s-3.646-8.125-8.126-8.125zm-98.058 12.25c-.259 0-.508.101-.694.28-1.149 1.109-2.659 1.72-4.249 1.72-3.377 0-6.125-2.748-6.125-6.125s2.748-6.125 6.126-6.125c1.59 0 3.099.61 4.249 1.72.187.18.436.28.694.28h3.57c-.089 1.345-.137 2.721-.137 4.125s.048 2.78.137 4.125zm67.25-4.125c0-14.417 5.308-26.597 11.591-26.597 5.367 0 10.011 8.895 11.255 20.472h-7.5c-.757-2.426-2.015-4.144-3.754-4.144-3.023 0-4.604 5.166-4.604 10.269s1.582 10.269 4.604 10.269c1.74 0 2.997-1.717 3.754-4.144h7.5c-1.244 11.576-5.888 20.472-11.255 20.472-6.283-.001-11.591-12.18-11.591-26.597zm13.222-6.125h-3.26c.54-1.399 1.188-2.144 1.63-2.144s1.089.745 1.63 2.144zm-3.26 12.25h3.26c-.54 1.399-1.188 2.144-1.63 2.144s-1.09-.745-1.63-2.144zm10.014 65.002c-.379-.339-.954-.341-1.334 0l-4.208 3.766-4.207-3.766c-.379-.339-.954-.341-1.334 0l-4.209 3.766-4.208-3.766c-.379-.339-.954-.341-1.334 0l-4.208 3.766-4.21-3.766c-.379-.34-.954-.34-1.333 0l-4.207 3.766-4.204-3.766c-.379-.339-.954-.341-1.334 0l-4.209 3.766-4.206-3.766c-.38-.339-.954-.341-1.334 0l-4.208 3.766-4.211-3.766c-.379-.34-.954-.34-1.333 0l-3.211 2.871v-17.237h.5c.552 0 1-.447 1-1s-.448-1-1-1h-.5v-26.165h54.658c4.964 0 9.223-5.335 11.592-13.483v39.648h-.5c-.552 0-1 .447-1 1s.448 1 1 1h.5v17.235zm10.832-65.002c-1.59 0-3.099-.61-4.249-1.72-.187-.18-.436-.28-.694-.28h-16.481c-.26-1.263-.396-2.673-.396-4.125s.136-2.862.396-4.125h16.482c.259 0 .508-.101.694-.28 1.149-1.109 2.659-1.72 4.249-1.72 3.377 0 6.125 2.748 6.125 6.125s-2.748 6.125-6.126 6.125z"/></g></g></g></svg>